<svg width="422" height="68" viewBox="0 0 422 68" fill="none" xmlns="http://www.w3.org/2000/svg">
<path d="M30 36.224C30.2133 36.992 30.2773 37.8453 30.192 38.784C30.1493 39.7227 29.9573 40.64 29.616 41.536C29.2747 42.432 28.8053 43.264 28.208 44.032C27.6107 44.7573 26.864 45.2907 25.968 45.632C24.56 46.1867 22.9813 46.208 21.232 45.696C19.5253 45.184 17.84 44.3093 16.176 43.072C14.5547 41.792 13.04 40.256 11.632 38.464C10.224 36.6293 9.11467 34.688 8.304 32.64C6.64 28.5013 6.064 25.152 6.576 22.592C7.088 19.9893 8.752 18.1333 11.568 17.024C12.8053 16.512 14.2987 16.3627 16.048 16.576C17.7973 16.7467 19.4613 17.1947 21.04 17.92C22.6613 18.6453 24.048 19.648 25.2 20.928C26.352 22.208 26.9707 23.68 27.056 25.344H31.984L32.048 23.424L19.056 14.72L17.072 14.656C12.0373 14.656 8.09067 15.7653 5.232 17.984C2.37333 20.2027 0.944 23.8293 0.944 28.864C0.944 31.3387 1.47733 33.7493 2.544 36.096C3.61067 38.4 5.01867 40.4267 6.768 42.176C8.56 43.9253 10.608 45.3333 12.912 46.4C15.2587 47.4667 17.6907 48 20.208 48C24.3467 48 27.6107 46.9547 30 44.864C32.3893 42.7307 34.032 39.8507 34.928 36.224H30ZM5.872 29.696H32.048V28.288H5.872V29.696ZM27.056 24.896C27.056 25.8347 26.608 26.5387 25.712 27.008C24.8587 27.4347 23.8987 27.7547 22.832 27.968C21.552 28.1813 20.1227 28.288 18.544 28.288L32.048 29.376L31.984 25.344L27.056 24.896ZM19.12 36.864H33.52V36.224H19.12V36.864ZM39.2925 48H46.0125V32.192C46.0125 30.8267 46.3965 29.4187 47.1645 27.968C47.9752 26.5173 48.9778 25.1733 50.1725 23.936C51.3672 22.656 52.6685 21.5467 54.0765 20.608C55.4845 19.6267 56.7858 18.9867 57.9805 18.688C59.1752 18.3467 60.1565 18.4107 60.9245 18.88C61.7352 19.3067 62.1405 20.2667 62.1405 21.76V48H68.8605V19.776C68.7325 18.4533 68.1565 17.3227 67.1325 16.384C66.1512 15.4453 64.8498 14.8267 63.2285 14.528L55.5485 16.384C55.0792 16.5973 54.3752 17.1307 53.4365 17.984C52.4978 18.7947 51.4952 19.7973 50.4285 20.992C49.4045 22.144 48.4018 23.4453 47.4205 24.896C46.4392 26.3467 45.6712 27.8187 45.1165 29.312H44.1565L45.9485 23.808L46.0125 16H39.2925V48ZM52.6045 48H64.8925V47.36H52.6045V48ZM62.1405 43.2C61.9272 44.2667 61.5858 45.0987 61.1165 45.696C60.6472 46.2507 60.1778 46.6773 59.7085 46.976C59.1538 47.2747 58.5565 47.4453 57.9165 47.488H62.5245L62.1405 43.2ZM84.5825 16L77.8625 19.264V48H84.5825V16ZM80.4225 11.648H81.8305L84.7105 -3.8147e-06H77.5425L80.4225 11.648ZM93.9235 30.016C93.9235 31.936 94.3715 33.7493 95.2675 35.456C96.1635 37.12 97.3368 38.5707 98.7875 39.808C100.238 41.0453 101.902 42.0267 103.78 42.752C105.657 43.4773 107.556 43.84 109.476 43.84C111.396 43.84 113.124 43.4133 114.66 42.56C116.196 41.664 117.497 40.4907 118.564 39.04C119.63 37.5893 120.441 35.9467 120.996 34.112C121.593 32.2773 121.892 30.4 121.892 28.48C121.892 26.56 121.508 24.832 120.74 23.296C119.972 21.7173 118.926 20.3947 117.604 19.328C116.281 18.2187 114.745 17.3867 112.996 16.832C111.289 16.2347 109.476 15.936 107.556 15.936C105.636 15.936 103.844 16.32 102.18 17.088C100.516 17.8133 99.0648 18.816 97.8275 20.096C96.6328 21.376 95.6728 22.8693 94.9475 24.576C94.2648 26.2827 93.9235 28.096 93.9235 30.016ZM101.028 32.064C100.388 30.4853 99.9182 28.928 99.6195 27.392C99.3635 25.856 99.3208 24.448 99.4915 23.168C99.6622 21.888 100.046 20.7787 100.644 19.84C101.241 18.9013 102.073 18.2187 103.14 17.792C104.249 17.3653 105.38 17.28 106.532 17.536C107.684 17.7493 108.814 18.24 109.924 19.008C111.033 19.776 112.057 20.7787 112.996 22.016C113.934 23.2533 114.724 24.6827 115.364 26.304C116.004 27.8827 116.473 29.504 116.772 31.168C117.113 32.832 117.241 34.3893 117.156 35.84C117.113 37.2907 116.814 38.5707 116.26 39.68C115.748 40.7893 114.958 41.5573 113.892 41.984C112.825 42.4107 111.652 42.432 110.372 42.048C109.134 41.664 107.918 41.0027 106.724 40.064C105.572 39.0827 104.484 37.9093 103.46 36.544C102.478 35.136 101.668 33.6427 101.028 32.064ZM98.7875 36.224L89.6995 46.08V53.248C90.6808 53.1627 92.1315 53.0347 94.0515 52.864C96.0142 52.736 98.1475 52.608 100.452 52.48C102.798 52.352 105.209 52.2453 107.684 52.16C110.158 52.1173 112.398 52.1173 114.404 52.16C116.409 52.2027 118.052 52.3307 119.332 52.544C120.612 52.8 121.252 53.1413 121.252 53.568C121.252 54.592 120.441 55.616 118.82 56.64C117.198 57.664 115.214 58.6027 112.868 59.456C110.521 60.3093 108.046 60.992 105.444 61.504C102.841 62.0587 100.558 62.336 98.5955 62.336V49.088H97.7635V67.264C100.75 67.0933 103.801 66.5173 106.916 65.536C110.03 64.5973 112.846 63.3813 115.364 61.888C117.924 60.4373 120.014 58.7947 121.636 56.96C123.257 55.1253 124.068 53.2693 124.068 51.392C124.068 50.2827 123.577 49.344 122.596 48.576C121.614 47.8507 120.292 47.2533 118.628 46.784C117.006 46.3147 115.129 45.9947 112.996 45.824C110.862 45.6107 108.644 45.4827 106.34 45.44C104.036 45.3547 101.71 45.3547 99.3635 45.44C97.0595 45.4827 94.9048 45.5253 92.8995 45.568L99.1075 36.928L98.7875 36.224ZM117.028 3.136L110.308 6.336V8.704L116.516 16L116.58 20.544H117.412L117.028 3.136ZM126.5 3.136H117.028L116.836 3.776H126.5V3.136ZM116.9 7.936C117.113 6.86933 117.454 6.05866 117.924 5.504C118.393 4.90666 118.862 4.45866 119.332 4.16C119.929 3.86133 120.548 3.69066 121.188 3.648H116.58L116.9 7.936ZM130.668 48H137.388V32.192C137.388 30.8267 137.729 29.4187 138.412 27.968C139.137 26.5173 140.012 25.1733 141.036 23.936C142.06 22.656 143.19 21.5467 144.428 20.608C145.665 19.6267 146.796 18.9867 147.82 18.688C148.844 18.3467 149.697 18.4107 150.38 18.88C151.105 19.3067 151.468 20.2667 151.468 21.76V22.848L158.188 20.736V19.776C158.06 18.4533 157.484 17.3227 156.46 16.384C155.478 15.4453 154.177 14.8267 152.556 14.528L144.876 16.384C144.406 16.5973 143.809 17.1307 143.083 17.984C142.358 18.7947 141.59 19.7973 140.78 20.992C140.012 22.144 139.244 23.4453 138.476 24.896C137.708 26.3467 137.046 27.8187 136.492 29.312H135.532L137.324 23.808L137.388 16H130.668V48ZM141.932 48H154.22V47.36H141.932V48ZM151.468 43.2C151.254 44.2667 150.913 45.0987 150.444 45.696C149.974 46.2507 149.505 46.6773 149.036 46.976C148.481 47.2747 147.884 47.4453 147.244 47.488H151.852L151.468 43.2ZM151.468 48H158.188V32.192C158.188 30.8267 158.529 29.4187 159.212 27.968C159.937 26.5173 160.812 25.1733 161.836 23.936C162.86 22.656 163.99 21.5467 165.228 20.608C166.465 19.6267 167.596 18.9867 168.62 18.688C169.644 18.3467 170.497 18.4107 171.18 18.88C171.905 19.3067 172.268 20.2667 172.268 21.76V48H178.988V19.776C178.86 18.4533 178.284 17.3227 177.26 16.384C176.278 15.4453 174.977 14.8267 173.356 14.528L165.676 16.384C165.206 16.5973 164.609 17.1307 163.884 17.984C163.158 18.7947 162.39 19.7973 161.58 20.992C160.812 22.144 160.044 23.4453 159.276 24.896C158.508 26.3467 157.846 27.8187 157.292 29.312H156.332L158.124 23.808L158.188 20.288L151.468 16V48ZM162.732 48H175.02V47.36H162.732V48ZM172.268 43.2C172.054 44.2667 171.713 45.0987 171.244 45.696C170.774 46.2507 170.305 46.6773 169.836 46.976C169.281 47.2747 168.684 47.4453 168.044 47.488H172.652L172.268 43.2ZM208.98 24.512C208.98 25.1947 209.193 25.8347 209.62 26.432C210.089 27.0293 210.473 27.648 210.772 28.288L210.004 28.8C209.705 28.16 209.321 27.4987 208.852 26.816C208.425 26.1333 207.913 25.6213 207.316 25.28C206.164 24.5547 204.905 24.2773 203.54 24.448C202.174 24.576 200.809 24.9387 199.444 25.536C198.078 26.1333 196.777 26.88 195.54 27.776C194.345 28.672 193.364 29.504 192.595 30.272C191.06 31.808 189.78 33.3867 188.756 35.008C187.774 36.5867 187.07 38.1227 186.644 39.616C186.217 41.1093 186.068 42.496 186.196 43.776C186.366 45.0133 186.836 46.016 187.604 46.784C188.286 47.4667 189.14 47.9573 190.164 48.256C191.23 48.5973 192.425 48.6187 193.748 48.32C195.07 48.064 196.521 47.4667 198.1 46.528C199.721 45.5893 201.428 44.224 203.22 42.432C204.628 41.024 205.801 39.5947 206.74 38.144C207.678 36.6933 208.361 35.072 208.788 33.28H209.748L208.98 43.2C208.681 44.6933 208.169 45.7387 207.444 46.336C206.761 46.8907 206.142 47.232 205.588 47.36H199.444V48H215.7V19.776C215.572 18.4533 214.996 17.3227 213.972 16.384C212.99 15.4453 211.689 14.8267 210.068 14.528L202.644 15.616C201.79 15.9147 200.745 16.32 199.508 16.832C198.27 17.344 197.012 17.8987 195.732 18.496C194.494 19.0507 193.3 19.6053 192.148 20.16C191.038 20.7147 190.164 21.184 189.524 21.568L189.268 27.712H189.716C191.508 24.8107 193.513 22.464 195.732 20.672C197.993 18.88 200.084 17.6853 202.003 17.088C203.966 16.4907 205.609 16.4907 206.932 17.088C208.297 17.6853 208.98 18.9227 208.98 20.8V24.512ZM196.5 29.696C197.481 28.7147 198.505 27.9467 199.572 27.392C200.638 26.7947 201.662 26.4107 202.644 26.24C203.625 26.0267 204.521 26.0053 205.332 26.176C206.142 26.3467 206.804 26.688 207.316 27.2C208.297 28.224 208.553 29.696 208.084 31.616C207.657 33.536 206.42 35.52 204.372 37.568C203.348 38.592 202.26 39.4453 201.108 40.128C199.998 40.8107 198.91 41.3227 197.844 41.664C196.777 41.9627 195.796 42.0907 194.9 42.048C194.046 42.0053 193.364 41.728 192.852 41.216C192.34 40.704 192.062 40.0213 192.02 39.168C191.977 38.272 192.105 37.2907 192.404 36.224C192.745 35.1573 193.257 34.048 193.94 32.896C194.622 31.744 195.476 30.6773 196.5 29.696ZM232.601 48H240.665V47.36H234.521C233.924 47.36 233.262 47.1253 232.537 46.656C231.812 46.1867 231.449 45.3973 231.449 44.288V17.344H242.457V15.936L231.385 16C231.385 14.5067 231.406 12.9067 231.449 11.2C231.534 9.45066 231.705 7.82933 231.961 6.336C232.26 4.84266 232.708 3.584 233.305 2.56C233.945 1.536 234.82 0.981331 235.929 0.895996L235.801 0.0639992H233.881L225.561 13.312V16H219.289V17.344H227.993L228.249 18.24C227.097 19.136 226.244 20.2453 225.689 21.568C225.134 22.848 224.857 24.1067 224.857 25.344L224.729 39.872C224.686 42.432 225.348 44.4373 226.713 45.888C228.121 47.296 230.084 48 232.601 48ZM254.77 16L248.05 19.264V48H254.77V16ZM250.61 11.648H252.018L254.898 -3.8147e-06H247.73L250.61 11.648ZM288.097 36.224C288.097 37.3333 287.969 38.4 287.713 39.424C287.499 40.4053 287.158 41.3013 286.689 42.112C286.262 42.88 285.707 43.584 285.025 44.224C284.385 44.8213 283.617 45.2907 282.721 45.632C281.313 46.1867 279.883 46.336 278.433 46.08C276.982 45.824 275.595 45.2267 274.273 44.288C272.95 43.3493 271.713 42.112 270.561 40.576C269.409 38.9973 268.427 37.184 267.617 35.136C266.806 33.088 266.251 31.104 265.953 29.184C265.697 27.2213 265.718 25.4507 266.017 23.872C266.358 22.2507 266.955 20.8427 267.809 19.648C268.662 18.4533 269.793 17.5787 271.201 17.024C272.481 16.512 273.761 16.3413 275.041 16.512C276.363 16.6827 277.622 17.152 278.817 17.92C280.054 18.6453 281.227 19.648 282.337 20.928C283.446 22.1653 284.427 23.6373 285.281 25.344H292.705C291.638 22.016 289.718 19.4133 286.945 17.536C284.214 15.616 280.886 14.656 276.961 14.656C274.443 14.656 272.161 15.0613 270.113 15.872C268.065 16.64 266.294 17.7707 264.801 19.264C263.35 20.7147 262.219 22.464 261.409 24.512C260.641 26.56 260.257 28.8427 260.257 31.36C260.257 33.8347 260.641 36.096 261.409 38.144C262.219 40.192 263.35 41.9627 264.801 43.456C266.294 44.9067 268.065 46.0373 270.113 46.848C272.161 47.616 274.443 48 276.961 48C281.099 48 284.577 46.9547 287.393 44.864C290.251 42.7307 292.129 39.8507 293.025 36.224H288.097ZM316.668 48H323.388V34.24H322.428L323.324 28.544L323.388 -3.8147e-06L316.668 3.2V48ZM332.86 -3.8147e-06H323.388L323.196 0.639999H332.86V-3.8147e-06ZM323.26 4.8C323.473 3.73333 323.814 2.92266 324.284 2.368C324.753 1.77066 325.222 1.32266 325.692 1.024C326.289 0.72533 326.908 0.554663 327.548 0.511997H322.94L323.26 4.8ZM321.852 44.288C323.004 46.1227 324.433 47.36 326.14 48C327.889 48.5973 329.745 48.64 331.708 48.128C333.713 47.616 335.761 46.5707 337.852 44.992C339.942 43.4133 341.926 41.3227 343.804 38.72C345.468 36.4587 346.748 34.2187 347.644 32C348.54 29.7813 349.094 27.712 349.308 25.792C349.521 23.872 349.393 22.1653 348.924 20.672C348.454 19.136 347.644 17.9627 346.492 17.152C345.382 16.3413 344.081 15.9147 342.588 15.872C341.137 15.8293 339.601 16.1707 337.98 16.896C336.358 17.6213 334.673 18.7307 332.924 20.224C331.217 21.7173 329.532 23.5947 327.868 25.856C326.588 27.6053 325.521 29.3547 324.668 31.104C323.857 32.8533 323.217 34.5387 322.748 36.16C322.278 37.7387 321.98 39.232 321.852 40.64C321.724 42.048 321.724 43.264 321.852 44.288ZM339.068 39.936C338.172 41.1733 337.148 42.3253 335.996 43.392C334.844 44.416 333.67 45.248 332.476 45.888C331.281 46.4853 330.108 46.848 328.956 46.976C327.846 47.0613 326.886 46.8053 326.076 46.208C325.393 45.696 324.86 44.9493 324.476 43.968C324.134 42.944 323.985 41.792 324.028 40.512C324.07 39.1893 324.348 37.8027 324.86 36.352C325.372 34.8587 326.14 33.3867 327.164 31.936C328.316 30.3147 329.596 28.8427 331.003 27.52C332.454 26.1973 333.884 25.1093 335.292 24.256C336.742 23.4027 338.086 22.848 339.324 22.592C340.604 22.336 341.628 22.4853 342.396 23.04C343.206 23.5947 343.697 24.512 343.868 25.792C344.081 27.0293 344.017 28.4373 343.676 30.016C343.334 31.552 342.758 33.1947 341.948 34.944C341.18 36.6933 340.22 38.3573 339.068 39.936ZM352.257 31.36C352.257 33.8347 352.641 36.096 353.409 38.144C354.219 40.192 355.35 41.9627 356.801 43.456C358.294 44.9067 360.065 46.0373 362.113 46.848C364.161 47.616 366.443 48 368.961 48C371.478 48 373.739 47.616 375.745 46.848C377.793 46.0373 379.542 44.9067 380.993 43.456C382.486 41.9627 383.617 40.192 384.385 38.144C385.195 36.096 385.601 33.8347 385.601 31.36C385.601 28.8427 385.195 26.56 384.385 24.512C383.617 22.464 382.486 20.7147 380.993 19.264C379.542 17.7707 377.793 16.64 375.745 15.872C373.739 15.0613 371.478 14.656 368.961 14.656C366.443 14.656 364.161 15.0613 362.113 15.872C360.065 16.64 358.294 17.7707 356.801 19.264C355.35 20.7147 354.219 22.464 353.409 24.512C352.641 26.56 352.257 28.8427 352.257 31.36ZM359.617 35.136C358.806 33.088 358.251 31.104 357.953 29.184C357.697 27.2213 357.718 25.4507 358.017 23.872C358.358 22.2507 358.955 20.8427 359.809 19.648C360.662 18.4533 361.793 17.5787 363.201 17.024C364.609 16.4693 366.017 16.32 367.425 16.576C368.875 16.832 370.262 17.4293 371.585 18.368C372.95 19.3067 374.209 20.5653 375.361 22.144C376.513 23.7227 377.494 25.536 378.305 27.584C379.115 29.632 379.649 31.616 379.905 33.536C380.161 35.456 380.139 37.2267 379.841 38.848C379.542 40.4267 378.966 41.8133 378.113 43.008C377.259 44.2027 376.129 45.0773 374.721 45.632C373.313 46.1867 371.883 46.336 370.433 46.08C368.982 45.824 367.595 45.2267 366.273 44.288C364.95 43.3493 363.713 42.112 362.561 40.576C361.409 38.9973 360.427 37.184 359.617 35.136ZM369.473 37.824L369.409 25.536H368.833L368.897 37.824H369.473ZM421.06 47.36C420.207 47.36 419.417 47.1253 418.692 46.656C417.967 46.1867 417.263 45.568 416.58 44.8C415.897 44.032 415.236 43.2 414.596 42.304C413.999 41.3653 413.38 40.448 412.74 39.552L407.684 32.448V31.488L419.908 16H412.228C411.588 18.432 410.735 20.7787 409.668 23.04C408.644 25.2587 407.492 27.392 406.212 29.44L401.796 22.528C401.327 21.8027 401.028 21.0987 400.9 20.416C400.772 19.7333 400.751 19.136 400.836 18.624C400.921 18.0693 401.092 17.6213 401.348 17.28C401.604 16.896 401.86 16.6827 402.116 16.64H408.26L408.196 16H389.124L401.924 34.624V35.584C400.985 36.6933 400.025 37.76 399.044 38.784C398.105 39.7653 397.167 40.6827 396.228 41.536C395.332 42.3893 394.457 43.1787 393.604 43.904C392.793 44.5867 392.025 45.184 391.3 45.696C390.617 46.208 389.999 46.6347 389.444 46.976C388.932 47.2747 388.505 47.488 388.164 47.616V48H405.124V47.36H399.044C398.703 47.2747 398.319 47.0827 397.892 46.784C397.465 46.4853 397.188 45.9733 397.06 45.248L403.204 37.312L406.788 42.752C407.769 44.2453 408.772 45.4187 409.796 46.272C410.82 47.1253 412.143 47.7013 413.764 48H421.06V47.36Z" fill="black"/>
</svg>
