<?xml version="1.0" standalone="no"?>
<!DOCTYPE svg PUBLIC "-//W3C//DTD SVG 20010904//EN"
 "http://www.w3.org/TR/2001/REC-SVG-20010904/DTD/svg10.dtd">
<svg version="1.0" xmlns="http://www.w3.org/2000/svg"
 width="434.000000pt" height="434.000000pt" viewBox="0 0 434.000000 434.000000"
 preserveAspectRatio="xMidYMid meet">
<metadata>
Created by potrace 1.14, written by Peter Selinger 2001-2017
</metadata>
<g transform="translate(0.000000,434.000000) scale(0.100000,-0.100000)"
fill="#000000" stroke="none">
<path d="M2115 4315 c-16 -7 -183 -84 -370 -170 -187 -87 -414 -192 -505 -235
-248 -117 -326 -153 -545 -255 -475 -220 -451 -207 -463 -255 -7 -29 -10 -415
-9 -1248 l2 -1206 45 -17 c25 -9 189 -87 365 -174 176 -86 361 -176 410 -200
50 -24 155 -75 235 -113 80 -39 201 -97 270 -130 69 -33 231 -111 360 -174
129 -63 244 -118 256 -122 22 -7 139 44 499 219 99 48 239 115 310 150 72 34
218 105 325 157 107 53 251 122 320 155 69 33 204 99 300 145 96 47 183 88
192 91 17 6 18 79 17 1244 -1 713 -5 1251 -10 1268 -6 19 -19 35 -37 42 -15 6
-160 69 -322 140 -815 358 -940 413 -945 413 -3 0 -40 16 -83 35 -204 91 -577
255 -582 255 -3 0 -18 -7 -35 -15z m175 -88 c230 -99 416 -180 635 -277 127
-56 256 -113 288 -126 58 -25 332 -144 642 -281 94 -41 174 -78 178 -82 4 -5
-7 -14 -25 -21 -30 -12 -53 -22 -153 -65 -16 -7 -75 -33 -130 -58 -55 -24
-190 -84 -300 -132 -110 -48 -233 -103 -273 -121 -40 -19 -75 -34 -78 -34 -3
0 -39 -16 -80 -35 -41 -19 -76 -35 -78 -35 -3 0 -37 -15 -78 -34 -141 -65
-189 -86 -193 -86 -2 0 -36 -15 -77 -34 -259 -119 -375 -170 -391 -168 -10 0
-37 10 -60 20 -72 33 -110 50 -162 70 -48 19 -338 143 -380 162 -11 5 -105 46
-210 90 -104 45 -209 90 -232 101 -24 10 -45 19 -49 19 -3 0 -45 18 -92 40
-130 59 -652 280 -663 280 -32 0 8 25 123 78 73 33 259 120 413 192 275 130
457 214 865 402 113 52 252 117 310 145 74 35 111 48 125 42 11 -4 67 -27 125
-52z m1798 -2032 c-3 -680 -7 -1237 -9 -1239 -2 -2 -76 -38 -164 -79 -88 -41
-251 -120 -362 -176 -112 -56 -205 -101 -207 -101 -3 0 -96 -44 -208 -98 -112
-54 -277 -134 -368 -178 -91 -43 -253 -122 -360 -175 -107 -53 -198 -95 -201
-93 -4 2 -5 576 -2 1276 l4 1273 88 40 c48 22 143 64 212 94 68 29 144 62 169
73 25 12 79 35 120 53 41 18 101 44 133 59 31 14 85 37 118 51 33 14 90 39
127 56 37 17 137 62 222 99 175 76 335 147 365 161 101 47 312 138 319 139 5
0 7 -522 4 -1235z m-2516 -685 c-12 -10 -57 -26 -100 -35 -42 -9 -90 -26 -105
-37 -35 -24 -63 -18 -48 11 16 29 170 78 251 80 l25 0 -23 -19z m-407 -326
c13 -6 11 -11 -15 -33 -30 -25 -32 -30 -41 -136 -6 -60 -13 -112 -15 -115 -13
-13 -19 29 -19 140 0 109 2 123 19 136 21 15 45 18 71 8z"/>
<path d="M2075 4214 c-121 -59 -407 -194 -412 -194 -2 0 -43 -19 -91 -41 -48
-23 -215 -101 -372 -174 -157 -73 -361 -168 -455 -212 -93 -44 -210 -99 -260
-123 l-90 -42 90 -38 c50 -21 197 -83 328 -139 130 -55 257 -110 282 -121 24
-11 47 -20 50 -20 3 0 40 -16 83 -34 103 -46 370 -162 457 -198 39 -16 84 -35
100 -42 84 -38 391 -166 397 -166 4 0 31 11 60 24 79 35 132 59 238 106 52 23
113 50 135 60 34 15 644 285 1055 467 69 31 150 67 180 80 30 14 66 30 80 35
23 9 16 13 -80 54 -58 25 -123 53 -145 64 -86 39 -472 213 -690 310 -126 56
-252 112 -280 125 -27 12 -88 39 -135 60 -47 20 -107 47 -135 60 -96 44 -280
122 -300 128 -12 3 -48 -8 -90 -29z"/>
<path d="M3810 3273 c-385 -171 -643 -283 -653 -283 -6 0 -18 -6 -26 -13 -9
-7 -81 -42 -161 -77 -80 -34 -203 -89 -275 -120 -71 -32 -194 -86 -273 -120
-78 -35 -149 -68 -156 -74 -12 -9 -15 -180 -21 -1036 -3 -564 -8 -1116 -10
-1227 -3 -126 -1 -203 5 -203 10 0 88 36 365 170 83 40 195 94 250 120 55 26
172 83 260 125 88 43 201 97 250 120 50 23 164 78 255 122 91 44 225 108 298
143 l132 63 1 736 c0 405 2 941 5 1193 3 251 2 458 -3 461 -4 2 -114 -43 -243
-100z m-273 -1128 c55 -16 140 -69 157 -98 25 -41 -139 -282 -256 -377 -77
-62 -156 -108 -236 -138 -55 -21 -85 -25 -172 -26 -95 -1 -110 2 -160 26 -31
15 -68 41 -84 57 l-28 29 20 46 c60 134 209 309 336 393 137 92 298 125 423
88z"/>
<path d="M3213 2070 c-97 -49 -174 -174 -181 -292 -7 -122 37 -188 127 -188
149 0 297 232 251 394 -26 92 -111 129 -197 86z m137 -50 c93 -100 -6 -351
-154 -391 -151 -41 -192 193 -61 339 79 88 163 108 215 52z"/>
<path d="M3163 1980 c-31 -12 -63 -68 -63 -108 0 -41 36 -63 73 -43 53 28 78
129 38 151 -22 11 -19 11 -48 0z m22 -61 c0 -15 -7 -25 -18 -27 -22 -4 -33 24
-17 43 18 21 35 13 35 -16z"/>
</g>
</svg>
